<svg width="16" height="22" viewBox="0 0 16 22" fill="none" xmlns="http://www.w3.org/2000/svg">
<path d="M15.2188 0H2.92969C1.36593 0 0.09375 1.27218 0.09375 2.83594V18.9062C0.09375 20.6122 1.4816 22 3.1875 22H15.2188C15.5985 22 15.9062 21.6922 15.9062 21.3125C15.9062 20.9328 15.5985 20.625 15.2188 20.625H3.1875C2.23978 20.625 1.46875 19.854 1.46875 18.9062C1.46875 17.9585 2.23978 17.1875 3.1875 17.1875H15.2188C15.5985 17.1875 15.9062 16.8797 15.9062 16.5V0.6875C15.9062 0.307828 15.5985 0 15.2188 0ZM1.46875 15.9599V2.83594C1.46875 2.02907 2.12282 1.375 2.92969 1.375H2.97266C3.09129 1.375 3.1875 1.47121 3.1875 1.58984V15.6047C3.1875 15.7171 3.101 15.8116 2.9889 15.8188C2.55556 15.8464 2.14624 15.9638 1.77924 16.1523C1.63732 16.2251 1.46875 16.1194 1.46875 15.9599Z" fill="#01BFFB"/>
</svg>
