<svg width="16" height="22" viewBox="0 0 16 22" fill="none" xmlns="http://www.w3.org/2000/svg">
<path d="M0.78125 19.5938C0.401535 19.5938 0.09375 19.2859 0.09375 18.9062V2.83594C0.09375 1.27218 1.36593 0 2.92969 0H15.2188C15.5985 0 15.9062 0.307828 15.9062 0.6875V16.5C15.9062 16.8797 15.5985 17.1875 15.2188 17.1875C14.839 17.1875 14.5312 16.8797 14.5312 16.5V1.375H2.92969C2.12411 1.375 1.46875 2.03036 1.46875 2.83594V18.9062C1.46875 19.2859 1.16096 19.5938 0.78125 19.5938Z" fill="url(#paint0_linear)"/>
<path d="M15.2188 22H3.1875C1.4816 22 0.09375 20.6122 0.09375 18.9062C0.09375 17.2003 1.4816 15.8125 3.1875 15.8125H15.2188C15.5985 15.8125 15.9062 16.1203 15.9062 16.5C15.9062 16.8797 15.5985 17.1875 15.2188 17.1875H3.1875C2.23978 17.1875 1.46875 17.9585 1.46875 18.9062C1.46875 19.854 2.23978 20.625 3.1875 20.625H15.2188C15.5985 20.625 15.9062 20.9328 15.9062 21.3125C15.9062 21.6922 15.5985 22 15.2188 22Z" fill="url(#paint1_linear)"/>
<path d="M15.2188 19.5938H3.1875C2.80779 19.5938 2.5 19.2859 2.5 18.9062C2.5 18.5266 2.80779 18.2188 3.1875 18.2188H15.2188C15.5985 18.2188 15.9062 18.5266 15.9062 18.9062C15.9062 19.2859 15.5985 19.5938 15.2188 19.5938Z" fill="url(#paint2_linear)"/>
<path d="M3.875 17.1875C3.49529 17.1875 3.1875 16.8797 3.1875 16.5V0.6875C3.1875 0.307828 3.49529 0 3.875 0C4.25471 0 4.5625 0.307828 4.5625 0.6875V16.5C4.5625 16.8797 4.25471 17.1875 3.875 17.1875Z" fill="url(#paint3_linear)"/>
<defs>
<linearGradient id="paint0_linear" x1="0.0937503" y1="9.79688" x2="15.9063" y2="9.79687" gradientUnits="userSpaceOnUse">
<stop stop-color="#323C4C"/>
<stop offset="0.817708" stop-color="#5B6370"/>
</linearGradient>
<linearGradient id="paint1_linear" x1="0.0937503" y1="18.9063" x2="15.9063" y2="18.9062" gradientUnits="userSpaceOnUse">
<stop stop-color="#323C4C"/>
<stop offset="0.817708" stop-color="#5B6370"/>
</linearGradient>
<linearGradient id="paint2_linear" x1="2.5" y1="18.9063" x2="15.9063" y2="18.9062" gradientUnits="userSpaceOnUse">
<stop stop-color="#323C4C"/>
<stop offset="0.817708" stop-color="#5B6370"/>
</linearGradient>
<linearGradient id="paint3_linear" x1="3.1875" y1="8.59375" x2="4.5625" y2="8.59375" gradientUnits="userSpaceOnUse">
<stop stop-color="#323C4C"/>
<stop offset="0.817708" stop-color="#5B6370"/>
</linearGradient>
</defs>
</svg>
